<mxfile host="app.diagrams.net" modified="2021-01-02T10:10:43.274Z" agent="5.0 (Windows NT 10.0; Win64; x64) AppleWebKit/537.36 (KHTML, like Gecko) Chrome/87.0.4280.88 Safari/537.36" etag="23IIDZyVIN9LbtJ76ay_" version="14.1.7" type="github">
  <diagram id="kgpKYQtTHZ0yAKxKKP6v" name="Page-1">
    <mxGraphModel dx="1056" dy="601" grid="1" gridSize="10" guides="1" tooltips="1" connect="1" arrows="1" fold="1" page="1" pageScale="1" pageWidth="850" pageHeight="1100" math="0" shadow="0">
      <root>
        <mxCell id="0" />
        <mxCell id="1" parent="0" />
        <mxCell id="d3HexqDCleYb4GjGV83A-2" value="&lt;b&gt;سفارش غذا&amp;nbsp;&lt;/b&gt;" style="shape=note;whiteSpace=wrap;html=1;size=14;verticalAlign=top;align=left;spacingTop=-6;rounded=0;shadow=0;comic=0;labelBackgroundColor=none;strokeWidth=1;fontFamily=Verdana;fontSize=12" vertex="1" parent="1">
          <mxGeometry width="100" height="35" as="geometry" />
        </mxCell>
        <mxCell id="d3HexqDCleYb4GjGV83A-3" value="خریدار" style="shape=umlActor;verticalLabelPosition=bottom;verticalAlign=top;html=1;outlineConnect=0;" vertex="1" parent="1">
          <mxGeometry x="100" y="268" width="30" height="60" as="geometry" />
        </mxCell>
        <mxCell id="d3HexqDCleYb4GjGV83A-4" value="سیستم" style="rounded=0;whiteSpace=wrap;html=1;" vertex="1" parent="1">
          <mxGeometry x="360" y="258" width="120" height="60" as="geometry" />
        </mxCell>
        <mxCell id="d3HexqDCleYb4GjGV83A-5" value="ادمین" style="rounded=1;whiteSpace=wrap;html=1;" vertex="1" parent="1">
          <mxGeometry x="1020" y="338" width="120" height="60" as="geometry" />
        </mxCell>
        <mxCell id="d3HexqDCleYb4GjGV83A-6" value="رستوران" style="rounded=1;whiteSpace=wrap;html=1;" vertex="1" parent="1">
          <mxGeometry x="720" y="198" width="120" height="60" as="geometry" />
        </mxCell>
        <mxCell id="d3HexqDCleYb4GjGV83A-8" value="رستوران" style="rounded=1;whiteSpace=wrap;html=1;" vertex="1" parent="1">
          <mxGeometry x="1310" y="338" width="120" height="60" as="geometry" />
        </mxCell>
        <mxCell id="d3HexqDCleYb4GjGV83A-9" value="" style="endArrow=classicThin;html=1;strokeWidth=1;endSize=20;entryX=0;entryY=0.5;entryDx=0;entryDy=0;" edge="1" parent="1">
          <mxGeometry width="100" relative="1" as="geometry">
            <mxPoint x="290" y="164.41" as="sourcePoint" />
            <mxPoint x="320" y="164.41" as="targetPoint" />
            <Array as="points" />
          </mxGeometry>
        </mxCell>
        <mxCell id="d3HexqDCleYb4GjGV83A-10" value="&lt;span style=&quot;font-family: &amp;#34;verdana&amp;#34; ; text-align: center&quot;&gt;1: انتخاب یک رستوران&lt;/span&gt;" style="text;whiteSpace=wrap;html=1;" vertex="1" parent="1">
          <mxGeometry x="172.5" y="150" width="109" height="30" as="geometry" />
        </mxCell>
        <mxCell id="d3HexqDCleYb4GjGV83A-11" value="&lt;span style=&quot;color: rgba(0 , 0 , 0 , 0) ; font-family: monospace ; font-size: 0px ; background-color: rgb(248 , 249 , 250)&quot;&gt;%3CmxGraphModel%3E%3Croot%3E%3CmxCell%20id%3D%220%22%2F%3E%3CmxCell%20id%3D%221%22%20parent%3D%220%22%2F%3E%3CmxCell%20id%3D%222%22%20value%3D%22%22%20style%3D%22endArrow%3Dnone%3Bhtml%3D1%3BexitX%3D1%3BexitY%3D0.5%3BexitDx%3D0%3BexitDy%3D0%3BentryX%3D0%3BentryY%3D0.5%3BentryDx%3D0%3BentryDy%3D0%3B%22%20edge%3D%221%22%20parent%3D%221%22%3E%3CmxGeometry%20width%3D%2250%22%20height%3D%2250%22%20relative%3D%221%22%20as%3D%22geometry%22%3E%3CmxPoint%20x%3D%22434.0000000000002%22%20y%3D%22240%22%20as%3D%22sourcePoint%22%2F%3E%3CmxPoint%20x%3D%22683.9999999999998%22%20y%3D%22240%22%20as%3D%22targetPoint%22%2F%3E%3C%2FmxGeometry%3E%3C%2FmxCell%3E%3C%2Froot%3E%3C%2FmxGraphModel%3E&lt;/span&gt;" style="endArrow=none;html=1;exitX=1;exitY=0.3333333333333333;exitDx=0;exitDy=0;entryX=0;entryY=0.5;entryDx=0;entryDy=0;exitPerimeter=0;" edge="1" parent="1" source="d3HexqDCleYb4GjGV83A-3" target="d3HexqDCleYb4GjGV83A-4">
          <mxGeometry width="50" height="50" relative="1" as="geometry">
            <mxPoint x="104" y="288" as="sourcePoint" />
            <mxPoint x="364" y="288" as="targetPoint" />
          </mxGeometry>
        </mxCell>
        <mxCell id="d3HexqDCleYb4GjGV83A-12" value="" style="endArrow=classicThin;html=1;strokeWidth=1;endSize=20;entryX=0;entryY=0.5;entryDx=0;entryDy=0;" edge="1" parent="1">
          <mxGeometry width="100" relative="1" as="geometry">
            <mxPoint x="659.9999999999999" y="228" as="sourcePoint" />
            <mxPoint x="691.9999999999999" y="219" as="targetPoint" />
            <Array as="points" />
          </mxGeometry>
        </mxCell>
        <mxCell id="d3HexqDCleYb4GjGV83A-13" value="&lt;span style=&quot;font-family: &amp;#34;verdana&amp;#34; ; text-align: center&quot;&gt;2:&lt;span style=&quot;font-size: 11px ; background-color: rgb(255 , 255 , 255)&quot;&gt;&amp;nbsp;دریافت اطلاعات رستوران&lt;/span&gt;&lt;/span&gt;" style="text;whiteSpace=wrap;html=1;rotation=346;" vertex="1" parent="1">
          <mxGeometry x="531.23" y="228" width="119.84" height="30" as="geometry" />
        </mxCell>
        <mxCell id="d3HexqDCleYb4GjGV83A-14" value="&lt;span style=&quot;color: rgba(0 , 0 , 0 , 0) ; font-family: monospace ; font-size: 0px ; background-color: rgb(248 , 249 , 250)&quot;&gt;%3CmxGraphModel%3E%3Croot%3E%3CmxCell%20id%3D%220%22%2F%3E%3CmxCell%20id%3D%221%22%20parent%3D%220%22%2F%3E%3CmxCell%20id%3D%222%22%20value%3D%22%22%20style%3D%22endArrow%3Dnone%3Bhtml%3D1%3BexitX%3D1%3BexitY%3D0.5%3BexitDx%3D0%3BexitDy%3D0%3BentryX%3D0%3BentryY%3D0.5%3BentryDx%3D0%3BentryDy%3D0%3B%22%20edge%3D%221%22%20parent%3D%221%22%3E%3CmxGeometry%20width%3D%2250%22%20height%3D%2250%22%20relative%3D%221%22%20as%3D%22geometry%22%3E%3CmxPoint%20x%3D%22434.0000000000002%22%20y%3D%22240%22%20as%3D%22sourcePoint%22%2F%3E%3CmxPoint%20x%3D%22683.9999999999998%22%20y%3D%22240%22%20as%3D%22targetPoint%22%2F%3E%3C%2FmxGeometry%3E%3C%2FmxCell%3E%3C%2Froot%3E%3C%2FmxGraphModel%3E&lt;/span&gt;" style="endArrow=none;html=1;exitX=0;exitY=0.5;exitDx=0;exitDy=0;entryX=1;entryY=0.5;entryDx=0;entryDy=0;" edge="1" parent="1" source="d3HexqDCleYb4GjGV83A-6" target="d3HexqDCleYb4GjGV83A-4">
          <mxGeometry x="-0.0584" y="33" width="50" height="50" relative="1" as="geometry">
            <mxPoint x="800.5" y="169.5" as="sourcePoint" />
            <mxPoint x="480" y="288" as="targetPoint" />
            <mxPoint as="offset" />
          </mxGeometry>
        </mxCell>
        <mxCell id="d3HexqDCleYb4GjGV83A-15" value="" style="endArrow=classicThin;html=1;strokeWidth=1;endSize=20;entryX=0;entryY=0.5;entryDx=0;entryDy=0;" edge="1" parent="1">
          <mxGeometry width="100" relative="1" as="geometry">
            <mxPoint x="180" y="196" as="sourcePoint" />
            <mxPoint x="150" y="196" as="targetPoint" />
            <Array as="points" />
          </mxGeometry>
        </mxCell>
        <mxCell id="d3HexqDCleYb4GjGV83A-16" value="&lt;span style=&quot;text-align: center&quot;&gt;3: نمایش نمایه فروش رستوران&lt;/span&gt;" style="text;whiteSpace=wrap;html=1;" vertex="1" parent="1">
          <mxGeometry x="200" y="180" width="130" height="30" as="geometry" />
        </mxCell>
        <mxCell id="d3HexqDCleYb4GjGV83A-17" value="&lt;span style=&quot;color: rgba(0 , 0 , 0 , 0) ; font-family: monospace ; font-size: 0px ; background-color: rgb(248 , 249 , 250)&quot;&gt;%3CmxGraphModel%3E%3Croot%3E%3CmxCell%20id%3D%220%22%2F%3E%3CmxCell%20id%3D%221%22%20parent%3D%220%22%2F%3E%3CmxCell%20id%3D%222%22%20value%3D%22%22%20style%3D%22endArrow%3Dnone%3Bhtml%3D1%3BexitX%3D1%3BexitY%3D0.5%3BexitDx%3D0%3BexitDy%3D0%3BentryX%3D0%3BentryY%3D0.5%3BentryDx%3D0%3BentryDy%3D0%3B%22%20edge%3D%221%22%20parent%3D%221%22%3E%3CmxGeometry%20width%3D%2250%22%20height%3D%2250%22%20relative%3D%221%22%20as%3D%22geometry%22%3E%3CmxPoint%20x%3D%22434.0000000000002%22%20y%3D%22240%22%20as%3D%22sourcePoint%22%2F%3E%3CmxPoint%20x%3D%22683.9999999999998%22%20y%3D%22240%22%20as%3D%22targetPoint%22%2F%3E%3C%2FmxGeometry%3E%3C%2FmxCell%3E%3C%2Froot%3E%3C%2FmxGraphModel%3E&lt;/span&gt;" style="endArrow=none;html=1;exitX=0;exitY=0.5;exitDx=0;exitDy=0;entryX=1;entryY=0.5;entryDx=0;entryDy=0;" edge="1" parent="1" source="d3HexqDCleYb4GjGV83A-44" target="d3HexqDCleYb4GjGV83A-4">
          <mxGeometry x="-0.0584" y="33" width="50" height="50" relative="1" as="geometry">
            <mxPoint x="730" y="368" as="sourcePoint" />
            <mxPoint x="520" y="232" as="targetPoint" />
            <mxPoint as="offset" />
          </mxGeometry>
        </mxCell>
        <mxCell id="d3HexqDCleYb4GjGV83A-18" value="&lt;div style=&quot;text-align: center&quot;&gt;&lt;span&gt;&lt;font face=&quot;helvetica&quot;&gt;&amp;nbsp;شارژ کیف پول : 6 ()&lt;/font&gt;&lt;/span&gt;&lt;/div&gt;" style="text;whiteSpace=wrap;html=1;rotation=21;" vertex="1" parent="1">
          <mxGeometry x="554.73" y="301.25" width="96.34" height="30" as="geometry" />
        </mxCell>
        <mxCell id="d3HexqDCleYb4GjGV83A-19" value="" style="endArrow=classicThin;html=1;strokeWidth=1;endSize=20;" edge="1" parent="1">
          <mxGeometry width="100" relative="1" as="geometry">
            <mxPoint x="651.07" y="338" as="sourcePoint" />
            <mxPoint x="682.07" y="352" as="targetPoint" />
            <Array as="points" />
          </mxGeometry>
        </mxCell>
        <mxCell id="d3HexqDCleYb4GjGV83A-20" value="&lt;span style=&quot;color: rgba(0 , 0 , 0 , 0) ; font-family: monospace ; font-size: 0px ; background-color: rgb(248 , 249 , 250)&quot;&gt;%3CmxGraphModel%3E%3Croot%3E%3CmxCell%20id%3D%220%22%2F%3E%3CmxCell%20id%3D%221%22%20parent%3D%220%22%2F%3E%3CmxCell%20id%3D%222%22%20value%3D%22%22%20style%3D%22endArrow%3Dnone%3Bhtml%3D1%3BexitX%3D1%3BexitY%3D0.5%3BexitDx%3D0%3BexitDy%3D0%3BentryX%3D0%3BentryY%3D0.5%3BentryDx%3D0%3BentryDy%3D0%3B%22%20edge%3D%221%22%20parent%3D%221%22%3E%3CmxGeometry%20width%3D%2250%22%20height%3D%2250%22%20relative%3D%221%22%20as%3D%22geometry%22%3E%3CmxPoint%20x%3D%22434.0000000000002%22%20y%3D%22240%22%20as%3D%22sourcePoint%22%2F%3E%3CmxPoint%20x%3D%22683.9999999999998%22%20y%3D%22240%22%20as%3D%22targetPoint%22%2F%3E%3C%2FmxGeometry%3E%3C%2FmxCell%3E%3C%2Froot%3E%3C%2FmxGraphModel%3E&lt;/span&gt;" style="endArrow=none;html=1;exitX=1;exitY=0.5;exitDx=0;exitDy=0;entryX=0;entryY=0.5;entryDx=0;entryDy=0;" edge="1" parent="1" source="d3HexqDCleYb4GjGV83A-44" target="d3HexqDCleYb4GjGV83A-5">
          <mxGeometry width="50" height="50" relative="1" as="geometry">
            <mxPoint x="760" y="368" as="sourcePoint" />
            <mxPoint x="990" y="373.9999999999999" as="targetPoint" />
          </mxGeometry>
        </mxCell>
        <mxCell id="d3HexqDCleYb4GjGV83A-21" value="" style="endArrow=classicThin;html=1;strokeWidth=1;endSize=20;entryX=0;entryY=0.5;entryDx=0;entryDy=0;" edge="1" parent="1">
          <mxGeometry width="100" relative="1" as="geometry">
            <mxPoint x="970" y="352.5799999999999" as="sourcePoint" />
            <mxPoint x="1000" y="352.5799999999999" as="targetPoint" />
            <Array as="points" />
          </mxGeometry>
        </mxCell>
        <mxCell id="d3HexqDCleYb4GjGV83A-22" value="&lt;span style=&quot;text-align: center&quot;&gt;6: اطلاعات رستوران)&amp;nbsp;&lt;/span&gt;&lt;span style=&quot;text-align: center&quot;&gt;&lt;font style=&quot;font-size: 12px&quot;&gt;اضافه کردن رستوران)&lt;/font&gt;&lt;/span&gt;" style="text;whiteSpace=wrap;html=1;" vertex="1" parent="1">
          <mxGeometry x="780" y="338" width="189" height="30" as="geometry" />
        </mxCell>
        <mxCell id="d3HexqDCleYb4GjGV83A-23" value="&lt;span style=&quot;color: rgba(0 , 0 , 0 , 0) ; font-family: monospace ; font-size: 0px ; background-color: rgb(248 , 249 , 250)&quot;&gt;%3CmxGraphModel%3E%3Croot%3E%3CmxCell%20id%3D%220%22%2F%3E%3CmxCell%20id%3D%221%22%20parent%3D%220%22%2F%3E%3CmxCell%20id%3D%222%22%20value%3D%22%22%20style%3D%22endArrow%3Dnone%3Bhtml%3D1%3BexitX%3D1%3BexitY%3D0.5%3BexitDx%3D0%3BexitDy%3D0%3BentryX%3D0%3BentryY%3D0.5%3BentryDx%3D0%3BentryDy%3D0%3B%22%20edge%3D%221%22%20parent%3D%221%22%3E%3CmxGeometry%20width%3D%2250%22%20height%3D%2250%22%20relative%3D%221%22%20as%3D%22geometry%22%3E%3CmxPoint%20x%3D%22434.0000000000002%22%20y%3D%22240%22%20as%3D%22sourcePoint%22%2F%3E%3CmxPoint%20x%3D%22683.9999999999998%22%20y%3D%22240%22%20as%3D%22targetPoint%22%2F%3E%3C%2FmxGeometry%3E%3C%2FmxCell%3E%3C%2Froot%3E%3C%2FmxGraphModel%3E&lt;/span&gt;" style="endArrow=none;html=1;exitX=1;exitY=0.5;exitDx=0;exitDy=0;entryX=0;entryY=0.5;entryDx=0;entryDy=0;" edge="1" parent="1" source="d3HexqDCleYb4GjGV83A-5" target="d3HexqDCleYb4GjGV83A-8">
          <mxGeometry width="50" height="50" relative="1" as="geometry">
            <mxPoint x="770" y="378" as="sourcePoint" />
            <mxPoint x="1030" y="378" as="targetPoint" />
          </mxGeometry>
        </mxCell>
        <mxCell id="d3HexqDCleYb4GjGV83A-24" value="&lt;div style=&quot;text-align: center&quot;&gt;&lt;span&gt;7: ایجاد رستوران&lt;/span&gt;&lt;/div&gt;" style="text;whiteSpace=wrap;html=1;" vertex="1" parent="1">
          <mxGeometry x="1170" y="338" width="80" height="30" as="geometry" />
        </mxCell>
        <mxCell id="d3HexqDCleYb4GjGV83A-25" value="" style="endArrow=classicThin;html=1;strokeWidth=1;endSize=20;entryX=0;entryY=0.5;entryDx=0;entryDy=0;" edge="1" parent="1">
          <mxGeometry width="100" relative="1" as="geometry">
            <mxPoint x="1249" y="352.40999999999985" as="sourcePoint" />
            <mxPoint x="1279" y="352.40999999999985" as="targetPoint" />
            <Array as="points" />
          </mxGeometry>
        </mxCell>
        <mxCell id="d3HexqDCleYb4GjGV83A-27" value="آدرس" style="rounded=1;whiteSpace=wrap;html=1;" vertex="1" parent="1">
          <mxGeometry x="990" y="198" width="120" height="60" as="geometry" />
        </mxCell>
        <mxCell id="d3HexqDCleYb4GjGV83A-28" value="&lt;span style=&quot;color: rgba(0 , 0 , 0 , 0) ; font-family: monospace ; font-size: 0px ; background-color: rgb(248 , 249 , 250)&quot;&gt;%3CmxGraphModel%3E%3Croot%3E%3CmxCell%20id%3D%220%22%2F%3E%3CmxCell%20id%3D%221%22%20parent%3D%220%22%2F%3E%3CmxCell%20id%3D%222%22%20value%3D%22%22%20style%3D%22endArrow%3Dnone%3Bhtml%3D1%3BexitX%3D1%3BexitY%3D0.5%3BexitDx%3D0%3BexitDy%3D0%3BentryX%3D0%3BentryY%3D0.5%3BentryDx%3D0%3BentryDy%3D0%3B%22%20edge%3D%221%22%20parent%3D%221%22%3E%3CmxGeometry%20width%3D%2250%22%20height%3D%2250%22%20relative%3D%221%22%20as%3D%22geometry%22%3E%3CmxPoint%20x%3D%22434.0000000000002%22%20y%3D%22240%22%20as%3D%22sourcePoint%22%2F%3E%3CmxPoint%20x%3D%22683.9999999999998%22%20y%3D%22240%22%20as%3D%22targetPoint%22%2F%3E%3C%2FmxGeometry%3E%3C%2FmxCell%3E%3C%2Froot%3E%3C%2FmxGraphModel%3E&lt;/span&gt;" style="endArrow=none;html=1;exitX=1;exitY=0.5;exitDx=0;exitDy=0;entryX=0;entryY=0.5;entryDx=0;entryDy=0;" edge="1" parent="1" source="d3HexqDCleYb4GjGV83A-6" target="d3HexqDCleYb4GjGV83A-27">
          <mxGeometry width="50" height="50" relative="1" as="geometry">
            <mxPoint x="770" y="378" as="sourcePoint" />
            <mxPoint x="1030" y="378" as="targetPoint" />
          </mxGeometry>
        </mxCell>
        <mxCell id="d3HexqDCleYb4GjGV83A-29" value="آدرس" style="rounded=1;whiteSpace=wrap;html=1;" vertex="1" parent="1">
          <mxGeometry x="1580" y="338" width="120" height="60" as="geometry" />
        </mxCell>
        <mxCell id="d3HexqDCleYb4GjGV83A-30" value="&lt;div style=&quot;text-align: center&quot;&gt;&lt;span&gt;8: ایجاد آدرس&lt;/span&gt;&lt;/div&gt;" style="text;whiteSpace=wrap;html=1;" vertex="1" parent="1">
          <mxGeometry x="1460" y="338" width="80" height="30" as="geometry" />
        </mxCell>
        <mxCell id="d3HexqDCleYb4GjGV83A-31" value="&lt;span style=&quot;color: rgba(0 , 0 , 0 , 0) ; font-family: monospace ; font-size: 0px ; background-color: rgb(248 , 249 , 250)&quot;&gt;%3CmxGraphModel%3E%3Croot%3E%3CmxCell%20id%3D%220%22%2F%3E%3CmxCell%20id%3D%221%22%20parent%3D%220%22%2F%3E%3CmxCell%20id%3D%222%22%20value%3D%22%22%20style%3D%22endArrow%3Dnone%3Bhtml%3D1%3BexitX%3D1%3BexitY%3D0.5%3BexitDx%3D0%3BexitDy%3D0%3BentryX%3D0%3BentryY%3D0.5%3BentryDx%3D0%3BentryDy%3D0%3B%22%20edge%3D%221%22%20parent%3D%221%22%3E%3CmxGeometry%20width%3D%2250%22%20height%3D%2250%22%20relative%3D%221%22%20as%3D%22geometry%22%3E%3CmxPoint%20x%3D%22434.0000000000002%22%20y%3D%22240%22%20as%3D%22sourcePoint%22%2F%3E%3CmxPoint%20x%3D%22683.9999999999998%22%20y%3D%22240%22%20as%3D%22targetPoint%22%2F%3E%3C%2FmxGeometry%3E%3C%2FmxCell%3E%3C%2Froot%3E%3C%2FmxGraphModel%3E&lt;/span&gt;" style="endArrow=none;html=1;exitX=1;exitY=0.5;exitDx=0;exitDy=0;entryX=0;entryY=0.5;entryDx=0;entryDy=0;" edge="1" parent="1" source="d3HexqDCleYb4GjGV83A-8" target="d3HexqDCleYb4GjGV83A-29">
          <mxGeometry width="50" height="50" relative="1" as="geometry">
            <mxPoint x="1150" y="378" as="sourcePoint" />
            <mxPoint x="1346" y="378" as="targetPoint" />
          </mxGeometry>
        </mxCell>
        <mxCell id="d3HexqDCleYb4GjGV83A-32" value="" style="endArrow=classicThin;html=1;strokeWidth=1;endSize=20;entryX=0;entryY=0.5;entryDx=0;entryDy=0;" edge="1" parent="1">
          <mxGeometry width="100" relative="1" as="geometry">
            <mxPoint x="1530" y="352.4999999999998" as="sourcePoint" />
            <mxPoint x="1560" y="352.4999999999998" as="targetPoint" />
            <Array as="points" />
          </mxGeometry>
        </mxCell>
        <mxCell id="d3HexqDCleYb4GjGV83A-33" value="&lt;div style=&quot;text-align: center&quot;&gt;&lt;span&gt;3: ایجاد آدرس&lt;/span&gt;&lt;/div&gt;" style="text;whiteSpace=wrap;html=1;" vertex="1" parent="1">
          <mxGeometry x="870" y="198" width="60" height="30" as="geometry" />
        </mxCell>
        <mxCell id="d3HexqDCleYb4GjGV83A-34" value="" style="endArrow=classicThin;html=1;strokeWidth=1;endSize=20;entryX=0;entryY=0.5;entryDx=0;entryDy=0;" edge="1" parent="1">
          <mxGeometry width="100" relative="1" as="geometry">
            <mxPoint x="939" y="212.49999999999977" as="sourcePoint" />
            <mxPoint x="969" y="212.49999999999977" as="targetPoint" />
            <Array as="points" />
          </mxGeometry>
        </mxCell>
        <mxCell id="d3HexqDCleYb4GjGV83A-38" value="" style="endArrow=classicThin;html=1;strokeWidth=1;endSize=20;entryX=0;entryY=0.5;entryDx=0;entryDy=0;" edge="1" parent="1">
          <mxGeometry width="100" relative="1" as="geometry">
            <mxPoint x="300" y="224.40999999999997" as="sourcePoint" />
            <mxPoint x="330" y="224.40999999999997" as="targetPoint" />
            <Array as="points" />
          </mxGeometry>
        </mxCell>
        <mxCell id="d3HexqDCleYb4GjGV83A-39" value="&lt;span style=&quot;font-family: &amp;#34;verdana&amp;#34; ; text-align: center&quot;&gt;4: انتخاب غذا و ثبت سفارش&lt;/span&gt;" style="text;whiteSpace=wrap;html=1;" vertex="1" parent="1">
          <mxGeometry x="164" y="210" width="127.5" height="30" as="geometry" />
        </mxCell>
        <mxCell id="d3HexqDCleYb4GjGV83A-42" value="" style="endArrow=classicThin;html=1;strokeWidth=1;endSize=20;entryX=0;entryY=0.5;entryDx=0;entryDy=0;" edge="1" parent="1">
          <mxGeometry width="100" relative="1" as="geometry">
            <mxPoint x="300" y="257.40999999999997" as="sourcePoint" />
            <mxPoint x="330" y="257.40999999999997" as="targetPoint" />
            <Array as="points" />
          </mxGeometry>
        </mxCell>
        <mxCell id="d3HexqDCleYb4GjGV83A-43" value="&lt;span style=&quot;font-family: &amp;#34;verdana&amp;#34; ; text-align: center&quot;&gt;5: درخواست شارژ کیف پول&lt;/span&gt;" style="text;whiteSpace=wrap;html=1;" vertex="1" parent="1">
          <mxGeometry x="164" y="243" width="127.5" height="30" as="geometry" />
        </mxCell>
        <mxCell id="d3HexqDCleYb4GjGV83A-44" value="خریدار" style="rounded=1;whiteSpace=wrap;html=1;" vertex="1" parent="1">
          <mxGeometry x="720" y="350" width="120" height="60" as="geometry" />
        </mxCell>
      </root>
    </mxGraphModel>
  </diagram>
</mxfile>
